{"title":"Budhia Singh: Born to Run 2016 Movies DVDScr XviD New +Sample ☻r","uid":15602678,"size":739997958,"categoryP":"video","categoryS":"movies","magnet":"?xt=urn:btih:a8f288bd6e204dcc0d07faf9091c5296a2413078&amp;dn=Budhia+Singh%3A+Born+to+Run+2016+Movies+DVDScr+XviD+New+%2BSample+%E2%98%BBr&amp;tr=udp%3A%2F%2Ftracker.leechers-paradise.org%3A6969&amp;tr=udp%3A%2F%2Fzer0day.ch%3A1337&amp;tr=udp%3A%2F%2Fopen.demonii.com%3A1337&amp;tr=udp%3A%2F%2Ftracker.coppersurfer.tk%3A6969&amp;tr=udp%3A%2F%2Fexodus.desync.com%3A6969","seeders":15,"leechers":7,"uploader":"basicssom","files":2,"time":1471675714,"description":"----------------------------------------------------------------\r\nBudhia Singh: Born to Run 2016 Hindi Movies DVDScr XviD AAC New Source with Sample ☻rDX☻\r\n\r\nSCREEN SHOTS &amp; POSTER:\r\n  \nhttp://postimage.co.nr/2016/8/interest/index.htm  \nhttp://postimage.co.nr/2016/8/interest/1.html  \nhttp://postimage.co.nr/2016/8/interest/2.html  \nhttp://postimage.co.nr/2016/8/interest/3.html  \nhttp://postimage.co.nr/2016/8/interest/4.html  \nhttp://postimage.co.nr/2016/8/interest/5.html  \nhttp://postimage.co.nr/2016/8/interest/6.html  \nhttp://postimage.co.nr/2016/8/interest/7.html  \nhttp://postimage.co.nr/2016/8/interest/8.html  \nhttp://postimage.co.nr/2016/8/interest/9.html  \nhttp://postimage.co.nr/2016/8/interest/10.html\r\n\r\nFormat                                   : Matroska\r\nFormat version                           : Version 4 / Version 2\r\nFile size                                : 698 MiB\r\nDuration                                 : 1 h 41 min\r\nOverall bit rate                         : 965 kb/s\r\nMovie name                               : Budhia Singh Born to Run 2016 Hindi Movies DVDScr XviD AAC New Source ☻rDX☻\r\n\r\nVideo\r\nID                                       : 1\r\nFormat                                   : MPEG-4 Visual\r\nFormat profile                           : Advanced   \r\nFormat settings, BVOP                    : 2\r\nFormat settings, QPel                    : No\r\nFormat settings, GMC                     : No warppoints\r\nFormat settings, Matrix                  : Default (H.263)\r\nMuxing mode                              : Packed bitstream\r\nCodec ID                                 : V_MS/VFW/FOURCC / XVID\r\nCodec ID/Hint                            : XviD\r\nDuration                                 : 1 h 41 min\r\nBit rate                                 : 850 kb/s\r\nWidth                                    : 640 pixels\r\nHeight                                   : 272 pixels\r\nDisplay aspect ratio                     : 2.35:1\r\nFrame rate mode                          : Constant\r\nFrame rate                               : 29.970 (30000/1001) FPS\r\nColor space                              : YUV\r\nChroma subsampling                       : 4:2:0\r\nBit depth                                : 8 bits\r\nScan type                                : Progressive\r\nCompression mode                         : Lossy\r\nBits/(Pixel*Frame)                       : 0.163\r\nStream size                              : 615 MiB (88%)\r\nTitle                                    : ☻rDX☻\r\nWriting library                          : XviD 66\r\nDefault                                  : Yes\r\nForced                                   : No\r\n\r\nAudio\r\nID                                       : 2\r\nFormat                                   : MPEG Audio\r\nFormat version                           : Version 1\r\nFormat profile                           : Layer 3\r\nMode                                     : Joint stereo\r\nMode extension                           : MS Stereo\r\nCodec ID                                 : A_MPEG/L3\r\nCodec ID/Hint                            : MP3\r\nDuration                                 : 1 h 41 min\r\nBit rate mode                            : Constant\r\nBit rate                                 : 96.0 kb/s\r\nChannel(s)                               : 2 channels\r\nSampling rate                            : 48.0 kHz\r\nCompression mode                         : Lossy\r\nStream size                              : 69.5 MiB (10%)\r\nTitle                                    : ☻rDX☻\r\nDefault                                  : Yes\r\nForced                                   : No\r\n\r\nIMDB \nhttp://www.imdb.com/title/tt5805252/","torrent":{"xt":"urn:btih:a8f288bd6e204dcc0d07faf9091c5296a2413078","amp;dn":"Budhia+Singh%3A+Born+to+Run+2016+Movies+DVDScr+XviD+New+%2BSample+%E2%98%BBr","amp;tr":["udp%3A%2F%2Ftracker.leechers-paradise.org%3A6969","udp%3A%2F%2Fzer0day.ch%3A1337","udp%3A%2F%2Fopen.demonii.com%3A1337","udp%3A%2F%2Ftracker.coppersurfer.tk%3A6969","udp%3A%2F%2Fexodus.desync.com%3A6969"],"infoHash":"a8f288bd6e204dcc0d07faf9091c5296a2413078","infoHashBuffer":{"type":"Buffer","data":[168,242,136,189,110,32,77,204,13,7,250,249,9,28,82,150,162,65,48,120]},"announce":[],"urlList":[]}}